<?xml version="1.0" encoding="UTF-8"?>
<svg version="1.1" xmlns="http://www.w3.org/2000/svg" width="1024" height="1024">
<path d="M0 0 C2.32838149 -0.00302671 4.65676198 -0.00691878 6.98514074 -0.01159257 C13.33392369 -0.0218145 19.6826498 -0.01970563 26.03143728 -0.01541197 C32.19120755 -0.01220686 38.35096884 -0.0203712 44.51073449 -0.02717223 C58.6517982 -0.04235804 72.79284391 -0.04412284 86.93391407 -0.0416492 C97.86049038 -0.03981153 108.78706083 -0.04158606 119.7136364 -0.04587364 C121.28737175 -0.04647606 122.8611071 -0.04707726 124.43484245 -0.04767724 C126.80677242 -0.04858457 129.17870239 -0.04949324 131.55063235 -0.0504096 C153.58524627 -0.05883118 175.619858 -0.06318038 197.6544733 -0.05900288 C198.48397937 -0.0588465 199.31348543 -0.05869012 200.16812804 -0.05852901 C204.37170566 -0.05772331 208.57528327 -0.05687754 212.77886087 -0.05601571 C213.6135962 -0.05584462 214.44833152 -0.05567353 215.30836186 -0.05549726 C216.99639746 -0.0551506 218.68443307 -0.05480207 220.37246868 -0.05445167 C246.62458206 -0.04909728 272.87666182 -0.05702013 299.12876892 -0.07548523 C328.67363443 -0.0962424 358.21847913 -0.10692077 387.76335233 -0.10290974 C390.91914363 -0.10251445 394.07493494 -0.10215289 397.23072624 -0.10181236 C398.39614152 -0.10167627 398.39614152 -0.10167627 399.58510053 -0.10153742 C411.26894203 -0.10037573 422.95276237 -0.10698703 434.63659859 -0.11762428 C447.93980874 -0.12972405 461.24297258 -0.13118068 474.54618347 -0.11883412 C481.32408693 -0.11282364 488.10189481 -0.11177966 494.87979317 -0.12383652 C501.1021917 -0.13477589 507.32442544 -0.13149732 513.54681652 -0.11757483 C515.78020913 -0.11494986 518.01361499 -0.11722387 520.2469945 -0.1253107 C570.65850952 -0.29496112 620.62661232 12.39459579 662.4405365 41.26069641 C663.32104675 41.85479309 663.32104675 41.85479309 664.21934509 42.46089172 C673.52552693 48.75275141 682.05985271 55.79259215 690.4405365 63.26069641 C690.99048279 63.74747864 691.54042908 64.23426086 692.10704041 64.73579407 C698.31421245 70.24565607 704.11418184 75.88222231 709.4405365 82.26069641 C710.36282981 83.31209705 711.28752844 84.3613902 712.213974 85.40913391 C718.90322855 93.01308525 724.90870977 100.7590421 730.4405365 109.26069641 C731.38606384 110.69348938 731.38606384 110.69348938 732.35069275 112.15522766 C749.52307825 139.059807 761.52815678 168.5799893 767.6905365 199.88569641 C767.84175964 200.64704895 767.99298279 201.40840149 768.14878845 202.19282532 C771.63000962 221.16951034 771.72838266 240.13759478 771.68506888 259.36042375 C771.67812452 263.44483493 771.68295636 267.52923621 771.68622386 271.61364967 C771.69034926 278.75546324 771.68712181 285.89724331 771.67894745 293.03905296 C771.66682664 303.65848838 771.66628053 314.27790288 771.66803143 324.89734395 C771.67065323 342.76501107 771.66399923 360.63266335 771.65199661 378.50032616 C771.64014886 396.18290467 771.63246195 413.86547701 771.63029099 431.54805946 C771.63015351 432.6488991 771.63001603 433.74973874 771.62987438 434.88393715 C771.62919768 440.47490264 771.62859493 446.06586813 771.62802063 451.65683363 C771.62382359 491.22279014 771.61035943 530.78873858 771.59141541 570.35469055 C771.5730367 608.78437762 771.5588743 647.21406247 771.55039978 685.64375305 C771.5500052 687.42166623 771.5500052 687.42166623 771.54960265 689.23549685 C771.54696554 701.138887 771.54441392 713.04227716 771.54192493 724.94566734 C771.53685297 749.19267035 771.53121046 773.43967322 771.52522278 797.68667603 C771.5249482 798.80143121 771.52467362 799.91618639 771.52439072 801.06472204 C771.5059999 875.46338352 771.47431073 949.86204052 771.4405365 1024.26069641 C695.48152655 1024.31213041 619.52251449 1024.35982673 543.56349182 1024.38772583 C542.43873904 1024.38814 541.31398626 1024.38855417 540.15515007 1024.38898089 C515.7094861 1024.39796024 491.26382195 1024.4062707 466.81815752 1024.4138924 C454.82949083 1024.41763431 442.8408242 1024.42152399 430.85215759 1024.42549133 C429.06266141 1024.42607975 429.06266141 1024.42607975 427.23701379 1024.42668005 C388.58933435 1024.43945727 349.94166809 1024.46198611 311.29399663 1024.48958807 C271.56859395 1024.51790812 231.84319857 1024.53635791 192.11778597 1024.54244138 C186.5030044 1024.54330581 180.88822285 1024.54428272 175.27344131 1024.54532814 C174.16840424 1024.54553041 173.06336716 1024.54573268 171.92484411 1024.54594108 C154.15820757 1024.5494821 136.39159362 1024.56338515 118.62496629 1024.58119251 C100.75055084 1024.59888571 82.87615772 1024.60559247 65.00173382 1024.60120054 C54.39063894 1024.59892402 43.77962597 1024.60495538 33.16854593 1024.62308904 C26.06741281 1024.63439192 18.96633295 1024.63465021 11.86519607 1024.62619185 C7.82734914 1024.62169064 3.78965642 1024.62174004 -0.24817355 1024.63534596 C-51.80795096 1024.79868579 -103.0342845 1012.68872725 -145.5594635 982.26069641 C-146.47856506 981.6148761 -147.39766663 980.96905579 -148.34461975 980.30366516 C-167.04055278 966.97196608 -184.35636301 951.32625797 -198.5594635 933.26069641 C-199.33934631 932.29776672 -200.11922913 931.33483704 -200.92274475 930.34272766 C-224.9734784 900.07792886 -240.53976162 864.44417011 -248.3094635 826.69819641 C-248.60772034 825.26467834 -248.60772034 825.26467834 -248.91200256 823.80220032 C-252.287311 806.48854702 -252.85283694 789.24602689 -252.82015991 771.65653992 C-252.8231866 769.32332094 -252.82707866 766.99010296 -252.83175248 764.6568867 C-252.84197466 758.2947716 -252.83986548 751.93271322 -252.83557189 745.5705936 C-252.83236686 739.39798943 -252.84053101 733.22539423 -252.84733214 727.05279467 C-252.8625179 712.88253046 -252.86428278 698.71228422 -252.86180911 684.54201357 C-252.85997152 673.59349885 -252.86174581 662.64498997 -252.86603355 651.69647598 C-252.86663597 650.1196456 -252.86723717 648.54281521 -252.86783716 646.96598483 C-252.86874448 644.58940477 -252.86965315 642.21282471 -252.87056951 639.83624465 C-252.87899101 617.7587615 -252.88334033 595.68128054 -252.87916279 573.60379601 C-252.87900641 572.77268186 -252.87885004 571.94156772 -252.87868892 571.0852683 C-252.87788322 566.87352617 -252.87703745 562.66178405 -252.87617562 558.45004193 C-252.87600453 557.61368247 -252.87583344 556.77732301 -252.87565717 555.91561933 C-252.87531051 554.22429969 -252.87496198 552.53298006 -252.87461159 550.84166043 C-252.86925666 524.53585056 -252.87718159 498.23007424 -252.89564514 471.92427063 C-252.91639953 442.32045107 -252.92708126 412.71665228 -252.92306966 383.11282504 C-252.92267436 379.95115384 -252.9223128 376.78948264 -252.92197227 373.62781143 C-252.92183618 372.4602203 -252.92183618 372.4602203 -252.92169733 371.26904146 C-252.92053539 359.56071892 -252.92714887 347.85241747 -252.93778419 336.14410019 C-252.94988039 322.81451106 -252.9513446 309.48496814 -252.93899403 296.15537827 C-252.93298115 289.36342191 -252.93194605 282.57156096 -252.94399643 275.77960968 C-252.95492782 269.5455442 -252.95166647 263.31164331 -252.93773475 257.07758529 C-252.93510763 254.83882694 -252.93739076 252.60005537 -252.94547061 250.36131005 C-253.11538023 199.71221546 -239.68868775 147.68083236 -209.5594635 106.26069641 C-208.86465881 105.29389954 -208.16985413 104.32710266 -207.45399475 103.33100891 C-196.65531328 88.61422177 -184.59875214 73.9842261 -170.5594635 62.26069641 C-169.50806286 61.3384031 -168.45876971 60.41370447 -167.411026 59.48725891 C-159.80707466 52.79800436 -152.06111781 46.79252314 -143.5594635 41.26069641 C-142.60426819 40.63034485 -141.64907288 39.99999329 -140.66493225 39.35054016 C-113.76035291 22.17815466 -84.24017061 10.17307613 -52.9344635 4.01069641 C-52.17311096 3.85947327 -51.41175842 3.70825012 -50.62733459 3.55244446 C-33.80869067 0.46711005 -17.04786084 -0.03173898 0 0 Z " fill="#74AA9C" transform="translate(252.55946350097656,-0.2606964111328125)"/>
<path d="M0 0 C0.69254883 0.10183594 1.38509766 0.20367187 2.09863281 0.30859375 C37.19002742 5.52640552 69.63137664 20.84565001 96.8125 43.5 C97.33996826 43.93779785 97.86743652 44.3755957 98.41088867 44.82666016 C101.16455891 47.1857221 103.56014575 49.59959851 105.8359375 52.42578125 C110.50420985 58.4217814 110.50420985 58.4217814 117.21337891 61.33984375 C123.20679377 61.34959905 129.08950787 60.17314764 134.81640625 58.45507812 C140.53260387 57.26377755 146.6690111 57.70666125 152.5 57.6875 C153.25454468 57.68488159 154.00908936 57.68226318 154.78649902 57.67956543 C174.42128123 57.67230289 194.3747893 59.43861028 213 66 C214.63662823 66.53673444 216.27335588 67.07316576 217.91015625 67.609375 C238.65062381 74.59312449 257.72300655 84.54911689 275 98 C275.56831543 98.44134277 276.13663086 98.88268555 276.72216797 99.33740234 C316.75051113 130.87883591 343.46088794 177.31528293 350.25 227.875 C351.69030046 240.17100832 351.21778533 252.6481754 351 265 C350.99355469 266.30710937 350.98710938 267.61421875 350.98046875 268.9609375 C350.78812054 274.61739963 349.84822048 280.06748191 348.6328125 285.5859375 C348.36871582 286.79113037 348.10461914 287.99632324 347.83251953 289.23803711 C347.03155362 292.79728534 346.20607427 296.35002354 345.375 299.90234375 C345.13563721 300.97210449 344.89627441 302.04186523 344.6496582 303.14404297 C344.2699922 304.81308953 343.86588215 306.47755827 343.40307617 308.12548828 C342.80755739 310.59632359 342.69125487 312.41534239 343.89306641 314.69116211 C345.2706807 316.5666998 346.75144181 318.27436333 348.3125 320 C349.4343454 321.32158098 350.55143983 322.6472077 351.6640625 323.9765625 C352.22770508 324.6459082 352.79134766 325.31525391 353.37207031 326.00488281 C370.505501 347.00284255 380.85335745 372.87526703 387 399 C387.46212891 400.87945313 387.46212891 400.87945313 387.93359375 402.796875 C390.13372869 411.93427751 391.15816935 420.61403325 391.203125 429.9921875 C391.20882507 430.93699982 391.21452515 431.88181213 391.22039795 432.85525513 C391.22980306 434.85043231 391.23636397 436.84562471 391.24023438 438.84082031 C391.24986055 441.83167186 391.28089431 444.82181155 391.3125 447.8125 C391.5483985 490.74736224 375.21736036 532.95396843 348 566 C347.54544434 566.56138672 347.09088867 567.12277344 346.62255859 567.70117188 C330.02587866 588.12960673 310.15712225 603.60145545 287 616 C286.32453125 616.36577148 285.6490625 616.73154297 284.953125 617.10839844 C271.45206059 624.29771524 254.89478729 630.94358187 239.74194336 633.36010742 C237.84126368 633.85002341 237.84126368 633.85002341 236.97021484 635.73974609 C236.71965332 636.49336426 236.4690918 637.24698242 236.2109375 638.0234375 C235.91469482 638.87010986 235.61845215 639.71678223 235.31323242 640.58911133 C235.00361572 641.50845459 234.69399902 642.42779785 234.375 643.375 C217.41158244 690.50990022 180.57945932 728.00171399 135.8125 749.625 C118.05401044 757.91384333 100.27880255 762.65377786 81 766 C79.67573563 766.24975826 78.35150954 766.49971966 77.02734375 766.75 C30.73993869 774.40256754 -20.16993957 760.51576207 -58.17578125 733.78125 C-67.38917006 727.13626496 -76.77746911 719.97500532 -84.27734375 711.39453125 C-88.02093551 706.87563505 -88.02093551 706.87563505 -93.1875 704.58984375 C-95.86370446 704.84751884 -98.379354 705.39739156 -101 706 C-123.37056764 709.64172031 -146.77678699 709.48454376 -169 705 C-169.87978516 704.82307617 -170.75957031 704.64615234 -171.66601562 704.46386719 C-207.56016968 697.01486533 -240.04936046 679.71412892 -266.52050781 654.41210938 C-267.5016484 653.4756544 -268.48795247 652.54457769 -269.47949219 651.61914062 C-304.52863672 618.85731666 -325.3895972 570.25949765 -327.12573242 522.54443359 C-327.56284316 501.66515653 -326.47665392 482.2222118 -320.53833008 462.08691406 C-319.06305538 457.02301756 -319.06305538 457.02301756 -320 452 C-321.59754121 449.82838771 -323.22079589 447.76000371 -324.9375 445.6875 C-338.595226 428.71203535 -348.4694255 410.68132738 -356.12890625 390.31298828 C-356.88122724 388.31537363 -357.65718091 386.32668881 -358.4375 384.33984375 C-359.81101387 380.60131068 -360.97237353 376.84479824 -362 373 C-362.34272949 371.72310303 -362.34272949 371.72310303 -362.69238281 370.42041016 C-366.61178207 355.00534393 -367.48126633 339.94722027 -367.5 324.125 C-367.50440094 323.23268677 -367.50880188 322.34037354 -367.51333618 321.42102051 C-367.54908639 304.04921412 -366.02702432 286.66875925 -360.875 270 C-360.4260437 268.51282471 -360.4260437 268.51282471 -359.96801758 266.99560547 C-351.45579675 239.70521252 -337.50988043 215.66049837 -319 194 C-318.29359375 193.16984375 -317.5871875 192.3396875 -316.859375 191.484375 C-301.23321524 173.60984693 -282.12468081 159.68660323 -261 149 C-260.27538574 148.63148926 -259.55077148 148.26297852 -258.80419922 147.88330078 C-244.38837382 140.63186009 -229.91276747 135.77627007 -214 133 C-213.79697266 132.195625 -213.79697266 132.195625 -213.58984375 131.375 C-201.50095081 87.36274307 -167.16077464 47.2873057 -128.01342773 24.81591797 C-124.3791072 22.80334094 -120.70140916 20.88570609 -117 19 C-116.38801758 18.6798291 -115.77603516 18.3596582 -115.14550781 18.02978516 C-80.23575202 -0.1213538 -38.72278984 -6.04053149 0 0 Z " fill="#FEFEFE" transform="translate(500,129)"/>
<path d="M0 0 C2.29031875 0.01610838 4.57887402 0.00002629 6.86914062 -0.01904297 C36.05989295 -0.05829465 64.53568389 10.11020106 88.35351562 26.76611328 C88.95566895 27.18280273 89.55782227 27.59949219 90.17822266 28.02880859 C91.82617188 29.22705078 91.82617188 29.22705078 94.29101562 31.39111328 C94.29101562 32.38111328 94.29101562 33.37111328 94.29101562 34.39111328 C93.659375 34.74189941 93.02773438 35.09268555 92.37695312 35.45410156 C78.62399427 43.10096467 64.95732511 50.87201367 51.38085938 58.82861328 C45.07531143 62.52324638 38.74807126 66.1796401 32.41601562 69.82861328 C31.33586182 70.4511499 30.25570801 71.07368652 29.14282227 71.71508789 C26.95305229 72.97688154 24.76319208 74.23851862 22.57324219 75.5 C17.1444162 78.62791476 11.71782281 81.75969776 6.29101562 84.89111328 C4.1243598 86.14113207 1.95769313 87.39113207 -0.20898438 88.64111328 C-1.28148437 89.25986328 -2.35398437 89.87861328 -3.45898438 90.51611328 C-13.20898437 96.14111328 -13.20898437 96.14111328 -16.46313477 98.01831055 C-18.61619475 99.26059134 -20.76902916 100.50326316 -22.92163086 101.74633789 C-27.94999899 104.6494744 -32.98038251 107.54890195 -38.01919556 110.43386841 C-39.79330982 111.44988512 -41.56668356 112.46718256 -43.33984375 113.48486328 C-45.55713752 114.7569362 -47.77579513 116.02663613 -49.99609375 117.29345703 C-62.07568358 123.3409776 -62.07568358 123.3409776 -70.70898438 133.07861328 C-71.26585937 134.19816406 -71.26585937 134.19816406 -71.83398438 135.34033203 C-73.7831616 139.90871616 -73.86137311 143.95066755 -73.86720276 148.83818054 C-73.87214074 149.71054047 -73.87707871 150.5829004 -73.88216633 151.48169547 C-73.89757094 154.4159363 -73.90590998 157.35015519 -73.91430664 160.28442383 C-73.92388283 162.38336379 -73.93389276 164.48230181 -73.94430542 166.58123779 C-73.97138857 172.2895434 -73.99237967 177.99785731 -74.01230741 183.70619178 C-74.03414593 189.66797896 -74.06154505 195.62974047 -74.08836365 201.59150696 C-74.13831942 212.88554499 -74.18324754 224.17959725 -74.22638601 235.47366315 C-74.27573375 248.3296115 -74.33066101 261.18553409 -74.3860656 274.04145753 C-74.49992992 300.49131876 -74.60675927 326.94120469 -74.70898438 353.39111328 C-76.4328813 352.45264678 -78.15655038 351.51376174 -79.88012695 350.57470703 C-80.84002029 350.05191162 -81.79991364 349.52911621 -82.78889465 348.99047852 C-95.85733136 341.8327521 -108.77267099 334.39177778 -121.64648438 326.89111328 C-122.63414795 326.31619141 -123.62181152 325.74126953 -124.6394043 325.14892578 C-125.57888916 324.59978516 -126.51837402 324.05064453 -127.48632812 323.48486328 C-128.30351318 323.00726563 -129.12069824 322.52966797 -129.96264648 322.03759766 C-131.32208374 321.22258789 -131.32208374 321.22258789 -132.70898438 320.39111328 C-133.36408462 320.17351758 -134.01918486 319.95592188 -134.69413662 319.73173237 C-137.38482208 318.61200041 -138.82758043 317.64275402 -140.70898438 315.39111328 C-141.95577958 309.77606285 -141.74038678 304.18889422 -141.64892578 298.4621582 C-141.64994362 296.70414715 -141.65445661 294.94613516 -141.66220093 293.18814087 C-141.67304847 288.41211222 -141.6341823 283.63763321 -141.58599901 278.86188293 C-141.54336198 273.85257684 -141.54459356 268.84327524 -141.5406189 263.83381653 C-141.52771536 255.40936721 -141.48521727 246.98549765 -141.42236328 238.5612793 C-141.34208971 227.78900163 -141.30702698 217.01710354 -141.28774452 206.2445631 C-141.27104977 196.94814211 -141.23659329 187.6517996 -141.19766951 178.35544801 C-141.18960159 176.36960903 -141.182118 174.38376759 -141.17522478 172.39792418 C-141.15546792 166.72117395 -141.12613054 161.04464263 -141.08154678 155.36803055 C-141.069451 153.65739341 -141.0604696 151.94673054 -141.05506134 150.23605919 C-141.00641986 136.15252028 -140.21255572 122.26832163 -136.33398438 108.64111328 C-136.11266846 107.84020264 -135.89135254 107.03929199 -135.66333008 106.21411133 C-135.02603494 103.93543073 -134.37033898 101.66290587 -133.70898438 99.39111328 C-133.40089844 98.29927734 -133.0928125 97.20744141 -132.77539062 96.08251953 C-127.45378467 78.65130357 -117.38203713 63.21680124 -105.70898438 49.39111328 C-105.0103125 48.55708984 -104.31164062 47.72306641 -103.59179688 46.86376953 C-98.17619209 40.609806 -92.26771968 35.41734854 -85.70898438 30.39111328 C-84.83371094 29.71177734 -83.9584375 29.03244141 -83.05664062 28.33251953 C-58.9240924 10.15337527 -30.27087921 -0.25204191 0 0 Z " fill="#74AA9C" transform="translate(467.708984375,177.60888671875)"/>
<path d="M0 0 C0.00219984 1.45002159 0.00219984 1.45002159 0.00444412 2.92933655 C0.04104889 26.45735198 0.10051136 49.98522517 0.18390274 73.51312256 C0.22370185 84.89107498 0.25608996 96.26895815 0.27099609 107.64697266 C0.28400804 117.56474898 0.31096116 127.48237298 0.35461307 137.40006351 C0.37723801 142.65079734 0.39291005 147.90134323 0.39188385 153.15213013 C0.39113786 158.09668306 0.40906444 163.04082035 0.44116783 167.98526573 C0.44967028 169.79762565 0.45141442 171.61003216 0.44580269 173.42240334 C0.43914632 175.90301608 0.45712124 178.38231267 0.48101807 180.86279297 C0.46937744 181.93092271 0.46937744 181.93092271 0.45750165 183.02063084 C0.5639935 189.29325328 2.76038905 194.31479716 6.73632812 199.08178711 C12.24953539 203.71387107 18.16893542 207.15962071 24.5 210.5625 C26.74191547 211.79239507 28.98277562 213.02421547 31.22265625 214.2578125 C32.92059326 215.19028809 32.92059326 215.19028809 34.65283203 216.14160156 C39.79356024 218.99581185 44.86749857 221.95996047 49.9375 224.9375 C51.92826816 226.10436674 53.91915461 227.27103168 55.91015625 228.4375 C56.9067627 229.02144531 57.90336914 229.60539063 58.93017578 230.20703125 C64.2332725 233.30437038 69.55394935 236.37113858 74.875 239.4375 C76.49523071 240.37130493 76.49523071 240.37130493 78.14819336 241.32397461 C80.33796334 242.58576826 82.52782355 243.84740534 84.71777344 245.10888672 C90.14659942 248.23680148 95.57319281 251.36858448 101 254.5 C103.16665583 255.75001879 105.3333225 257.00001878 107.5 258.25 C149.75 282.625 149.75 282.625 192 307 C188.57142523 309.86477513 185.12061062 312.20603564 181.23046875 314.3984375 C180.10535889 315.03620117 178.98024902 315.67396484 177.82104492 316.33105469 C177.22842865 316.66439819 176.63581238 316.9977417 176.02523804 317.34118652 C172.88684107 319.1066814 169.75648465 320.88634571 166.625 322.6640625 C165.98858078 323.02483887 165.35216156 323.38561523 164.69645691 323.75732422 C157.33627523 327.93420849 150.03240369 332.20623944 142.72924805 336.48193359 C140.94073692 337.52893589 139.15012614 338.57236405 137.35693359 339.61132812 C135.87508268 340.48441368 134.40663474 341.38109413 132.95947266 342.31054688 C128.59719352 345.05677587 128.59719352 345.05677587 125.63232422 344.77490234 C122.6881319 343.90819242 120.38427186 342.70406433 117.73828125 341.1484375 C116.71541016 340.55224609 115.69253906 339.95605469 114.63867188 339.34179688 C113.54103516 338.69275391 112.44339844 338.04371094 111.3125 337.375 C110.15083078 336.69521082 108.98871307 336.01618752 107.82617188 335.33789062 C105.41182554 333.92841697 102.99944078 332.51567013 100.58837891 331.10058594 C95.07681417 327.86944479 89.5370062 324.68727005 84 321.5 C81.83320035 320.25023053 79.6665341 319.00022976 77.5 317.75 C76.4275 317.13125 75.355 316.5125 74.25 315.875 C62.33333333 309 50.41666667 302.125 38.5 295.25 C36.8907666 294.3216333 36.8907666 294.3216333 35.24902344 293.37451172 C33.08552524 292.12628966 30.92211357 290.87791761 28.75878906 289.62939453 C23.29434983 286.47594744 17.82836355 283.32523904 12.359375 280.1796875 C6.94238422 277.06318286 1.53021878 273.93846388 -3.87792969 270.80664062 C-5.94504086 269.61047057 -8.01338518 268.4164288 -10.08300781 267.22460938 C-24.95132122 258.6528415 -38.49043727 249.86120125 -51 238 C-51.474375 237.55817383 -51.94875 237.11634766 -52.4375 236.66113281 C-72.69598803 217.70836765 -86.44630409 192.19279154 -92 165 C-92.16701416 164.28046143 -92.33402832 163.56092285 -92.50610352 162.81958008 C-94.36880942 154.03204997 -94.43998555 145.25268387 -94.4375 136.3125 C-94.4385675 135.49729889 -94.43963501 134.68209778 -94.44073486 133.8421936 C-94.36541827 93.88478676 -78.75644454 59.93086776 -50.875 31.5 C-39.36443865 20.06698953 -17.05693027 0 0 0 Z " fill="#74AA9C" transform="translate(277,317)"/>
<path d="M0 0 C3.00479822 1.03960203 5.56470864 2.392068 8.31762695 3.98706055 C10.00299561 4.95687866 10.00299561 4.95687866 11.72241211 5.94628906 C12.93523616 6.65372509 14.14796154 7.36133031 15.3605957 8.0690918 C16.62246823 8.79875587 17.88468 9.52783357 19.1472168 10.25634766 C22.95297438 12.4554173 26.75095216 14.66769275 30.5480957 16.8815918 C31.61753418 17.50388672 32.68697266 18.12618164 33.78881836 18.76733398 C38.71971095 21.63699742 43.64678399 24.51311909 48.5715332 27.39331055 C63.29447875 35.99665286 78.08520028 44.48300472 92.89752197 52.93130493 C105.19274611 59.94449808 117.44728997 67.02381341 129.65454102 74.18920898 C132.60018446 75.91205748 135.55388879 77.62041245 138.5090332 79.3269043 C152.37420149 87.36731423 164.87206267 95.81071901 176.5480957 106.8815918 C177.0224707 107.32341797 177.4968457 107.76524414 177.9855957 108.22045898 C202.69780628 131.33989037 218.23615823 164.61492813 219.70458984 198.49194336 C220.95604879 241.24533432 209.87649746 277.51459169 180.23950195 309.4831543 C165.38307594 325.12023001 146.53801174 339.00412537 125.5480957 344.8815918 C125.54662914 343.91491074 125.54516258 342.94822968 125.54365158 341.95225525 C125.50704682 318.42423981 125.44758434 294.89636662 125.36419296 271.36846924 C125.32439385 259.99051682 125.29200575 248.61263365 125.27709961 237.23461914 C125.26408766 227.31684282 125.23713455 217.39921882 125.19348264 207.48152828 C125.17085769 202.23079445 125.15518565 196.98024857 125.15621185 191.72946167 C125.15695784 186.78490874 125.13903127 181.84077145 125.10692787 176.89632607 C125.09842543 175.08396615 125.09668129 173.27155963 125.10229301 171.45918846 C125.10894938 168.97857572 125.09097446 166.49927913 125.06707764 164.01879883 C125.07483805 163.30671233 125.08259847 162.59462584 125.09059405 161.86096096 C124.98419432 155.59376426 122.78815481 150.57989537 118.82714844 145.80859375 C113.18990506 141.06213208 107.08639017 137.55537634 100.6105957 134.0690918 C98.35982923 132.83350783 96.10982966 131.59652583 93.8605957 130.3581543 C92.77262695 129.76164063 91.6846582 129.16512695 90.5637207 128.55053711 C86.70506974 126.41503371 82.89965179 124.20016371 79.1105957 121.9440918 C72.14100566 117.80740274 65.13306951 113.74037186 58.1105957 109.6940918 C57.00337158 109.05608643 55.89614746 108.41808105 54.75537109 107.76074219 C52.48472503 106.45269703 50.21397213 105.14483732 47.94311523 103.8371582 C42.47639591 100.68827126 37.01234683 97.53475916 31.5480957 94.3815918 C29.38144259 93.1315683 27.21477591 91.88156833 25.0480957 90.6315918 C-13.9519043 68.1315918 -13.9519043 68.1315918 -17.20654297 66.25390625 C-19.35773654 65.01283926 -21.50894084 63.77179086 -23.66015625 62.53076172 C-28.71153429 59.61660835 -33.7628074 56.70227362 -38.81369019 53.78726196 C-40.60257348 52.75485702 -42.39149147 51.72251223 -44.18041992 50.69018555 C-46.42528066 49.39473231 -48.6700762 48.09916609 -50.91479492 46.8034668 C-56.08762204 43.81851266 -61.26335439 40.83913863 -66.4519043 37.8815918 C-63.04356783 35.0360714 -59.61723445 32.69947578 -55.75268555 30.51831055 C-54.63772705 29.88562256 -53.52276855 29.25293457 -52.37402344 28.60107422 C-51.17081812 27.92374485 -49.96761172 27.24641742 -48.7644043 26.5690918 C-46.88857625 25.50652605 -45.01367199 24.44234211 -43.13877869 23.37812805 C-41.8516804 22.64771503 -40.5642934 21.91781054 -39.27662659 21.18840027 C-32.50252955 17.34992748 -25.75674963 13.4629921 -19.0144043 9.5690918 C-17.92619385 8.94156006 -16.8379834 8.31402832 -15.71679688 7.66748047 C-10.23278001 4.55097753 -10.23278001 4.55097753 -4.93994141 1.13085938 C-2.4519043 -0.1184082 -2.4519043 -0.1184082 0 0 Z " fill="#74AA9C" transform="translate(621.451904296875,362.118408203125)"/>
<path d="M0 0 C1.76749051 0.96357255 3.53491953 1.92725789 5.30232239 2.89099121 C6.28656598 3.42763145 7.27080957 3.9642717 8.28487873 4.51717377 C22.02873276 12.0231911 35.65511682 19.74477625 49.1875 27.625 C50.18418701 28.20443359 51.18087402 28.78386719 52.20776367 29.38085938 C53.14338135 29.92806641 54.07899902 30.47527344 55.04296875 31.0390625 C55.85789795 31.51553223 56.67282715 31.99200195 57.51245117 32.48291016 C58.33334229 32.9835498 59.1542334 33.48418945 60 34 C61.02600783 34.54518626 62.05201567 35.09037252 63.10911465 35.65207958 C66 38 66 38 66.74666691 41.2078371 C66.74503261 42.48691031 66.7433983 43.76598352 66.74171448 45.08381653 C66.74895772 45.79787853 66.75620097 46.51194054 66.76366371 47.24764079 C66.78058054 49.64224816 66.75458983 52.03445543 66.72875977 54.42895508 C66.73197896 56.14590607 66.7377961 57.86285388 66.74601746 59.57978821 C66.76058207 64.25068871 66.73755711 68.92073132 66.70715833 73.59152818 C66.68076513 78.4975065 66.68609071 83.40345916 66.6872406 88.30949402 C66.6844277 96.56918604 66.65836588 104.82854831 66.61743164 113.08813477 C66.57054807 122.58202023 66.55442709 132.07554212 66.5566383 141.56953508 C66.55868273 151.72438137 66.53772625 161.87909077 66.51029849 172.03389525 C66.50396288 174.93113415 66.50178279 177.82835031 66.50058174 180.72559547 C66.46350707 226.72906145 61.78473733 267.53822937 31 304 C30.30132813 304.83402344 29.60265625 305.66804688 28.8828125 306.52734375 C23.46659437 312.78201557 17.55686071 317.97033 11 323 C10.14792969 323.66773438 9.29585937 324.33546875 8.41796875 325.0234375 C-6.16383199 336.08549323 -22.28136947 343.50102652 -39.75 348.75 C-40.41056396 348.94883789 -41.07112793 349.14767578 -41.75170898 349.35253906 C-52.37784379 352.40390544 -62.62804938 353.32361048 -73.64208984 353.26074219 C-75.86453744 353.25005033 -78.08617102 353.26067906 -80.30859375 353.2734375 C-89.04994873 353.28242779 -97.38987901 352.66377706 -106 351 C-106.77811035 350.85401367 -107.5562207 350.70802734 -108.35791016 350.55761719 C-128.17348539 346.62854794 -146.53852604 338.19369994 -163.0625 326.625 C-163.96560913 325.99996582 -163.96560913 325.99996582 -164.88696289 325.36230469 C-166.53515625 324.1640625 -166.53515625 324.1640625 -169 322 C-169 321.01 -169 320.02 -169 319 C-168.36835938 318.64921387 -167.73671875 318.29842773 -167.0859375 317.93701172 C-153.33297865 310.29014861 -139.66630949 302.51909961 -126.08984375 294.5625 C-119.78429581 290.8678669 -113.45705564 287.21147319 -107.125 283.5625 C-106.04484619 282.93996338 -104.96469238 282.31742676 -103.85180664 281.67602539 C-101.66203666 280.41423174 -99.47217645 279.15259466 -97.28222656 277.89111328 C-91.85340058 274.76319852 -86.42680719 271.63141552 -81 268.5 C-78.83334417 267.24998121 -76.6666775 265.99998122 -74.5 264.75 C-73.4275 264.13125 -72.355 263.5125 -71.25 262.875 C-61.5 257.25 -61.5 257.25 -58.24536133 255.37255859 C-56.09388548 254.1311669 -53.94267788 252.88931018 -51.79174805 251.64697266 C-46.74551084 248.73310475 -41.69680739 245.82381662 -36.63821411 242.93145752 C-34.84863873 241.90793591 -33.05993494 240.88290746 -31.27148438 239.85742188 C-29.02841144 238.57186624 -26.7837146 237.28913831 -24.53710938 236.00976562 C-20.19067595 233.51545855 -15.92945427 231.03755335 -11.88671875 228.0703125 C-9 226 -9 226 -7 226 C-6.731875 225.46375 -6.46375 224.9275 -6.1875 224.375 C-5.28746142 222.57492284 -4.36716493 220.78495667 -3.4375 219 C-0.94626607 213.8009031 -0.84864375 209.17604411 -0.84178162 203.47064209 C-0.83684364 202.60151129 -0.83190566 201.73238049 -0.82681805 200.83691239 C-0.81143887 197.91959718 -0.80308126 195.00230398 -0.79467773 192.08496094 C-0.78509954 189.99572556 -0.7750895 187.90649213 -0.76467896 185.81726074 C-0.73761745 180.14000512 -0.7166146 174.46274117 -0.69667697 168.78545666 C-0.67482512 162.85437181 -0.64743251 156.92331266 -0.62062073 150.99224854 C-0.57068301 139.75845097 -0.52574817 128.52463915 -0.48259836 117.29081368 C-0.43323522 104.50255548 -0.37831366 91.71432305 -0.32291877 78.92608976 C-0.20908216 52.61741722 -0.10224675 26.30871996 0 0 Z " fill="#74AA9C" transform="translate(631,493)"/>
<path d="M0 0 C0 25.08 0 50.16 0 76 C-8.25 80.62 -16.5 85.24 -25 90 C-33.9631419 95.20530347 -33.9631419 95.20530347 -42.91015625 100.4375 C-49.21570419 104.1321331 -55.54294436 107.78852681 -61.875 111.4375 C-62.95515381 112.06003662 -64.03530762 112.68257324 -65.14819336 113.32397461 C-67.33796334 114.58576826 -69.52782355 115.84740534 -71.71777344 117.10888672 C-77.14659942 120.23680148 -82.57319281 123.36858448 -88 126.5 C-90.16665583 127.75001879 -92.3333225 129.00001878 -94.5 130.25 C-95.5725 130.86875 -96.645 131.4875 -97.75 132.125 C-101 134 -104.25 135.875 -107.5 137.75 C-109.11007935 138.6790918 -109.11007935 138.6790918 -110.75268555 139.62695312 C-112.90993415 140.87125139 -115.06764599 142.11474689 -117.22583008 143.35742188 C-122.79071476 146.56306455 -128.34594511 149.78412054 -133.88671875 153.03125 C-156.24656636 166.10784632 -177.30081155 175.79742683 -203 180 C-203.78439453 180.17200928 -204.56878906 180.34401855 -205.37695312 180.52124023 C-238.69620958 186.6026868 -275.40086218 174.05350438 -302.69458008 155.59887695 C-309.3439951 150.942135 -315.25343616 145.72846442 -321 140 C-322.25103516 138.75863281 -322.25103516 138.75863281 -323.52734375 137.4921875 C-350.82214299 109.98178953 -365.10396707 72.82863076 -365.19213867 34.21875 C-365.1075444 27.05472569 -364.13719957 20.06688302 -363 13 C-358.89102713 14.2576107 -355.34593014 15.77976192 -351.640625 17.94921875 C-350.11115234 18.83867188 -350.11115234 18.83867188 -348.55078125 19.74609375 C-347.46152344 20.38675781 -346.37226563 21.02742187 -345.25 21.6875 C-344.09279028 22.36256639 -342.93523143 23.03703462 -341.77734375 23.7109375 C-339.37429418 25.11015805 -336.9727608 26.51192935 -334.57226562 27.91552734 C-329.06213155 31.13449384 -323.52989642 34.31515029 -318 37.5 C-315.83584536 38.74853821 -313.67178316 39.99723668 -311.5078125 41.24609375 C-307.14934612 43.76069436 -302.78987809 46.27354661 -298.4296875 48.78515625 C-286.9455118 55.40222892 -275.47803106 62.04633977 -264.03417969 68.73291016 C-255.67125652 73.61607883 -247.28946023 78.46602232 -238.89550781 83.2956543 C-233.78996926 86.23345028 -228.68836335 89.1772416 -223.60336304 92.1504364 C-221.22625597 93.53991108 -218.84681638 94.92536422 -216.46722412 96.31057739 C-214.79245188 97.28773125 -213.12103228 98.27062416 -211.44970703 99.25366211 C-210.42989746 99.84671143 -209.41008789 100.43976074 -208.359375 101.05078125 C-207.46702148 101.57325439 -206.57466797 102.09572754 -205.65527344 102.6340332 C-198.89785184 106.11029045 -192.69868267 107.36525145 -185.3515625 105.23046875 C-177.77808975 102.29445123 -170.92166974 98.16452402 -163.98828125 93.98828125 C-158.2249936 90.51762402 -152.39408224 87.16672015 -146.5625 83.8125 C-144.31377009 82.51698262 -142.06507257 81.22140901 -139.81640625 79.92578125 C-138.68734863 79.27561035 -137.55829102 78.62543945 -136.39501953 77.95556641 C-130.9283002 74.80667946 -125.46425113 71.65316736 -120 68.5 C-117.83334689 67.2499765 -115.66668021 65.99997653 -113.5 64.75 C-112.4275 64.13125 -111.355 63.5125 -110.25 62.875 C-100.5 57.25 -100.5 57.25 -97.24951172 55.37475586 C-95.08442929 54.12564482 -92.91939018 52.87645871 -90.75439453 51.62719727 C-85.31384294 48.48797691 -79.87252784 45.35009437 -74.4296875 42.21484375 C-62.96228639 35.60743644 -51.51021478 28.97527924 -40.0847168 22.2956543 C-34.67345783 19.13463073 -29.25437949 15.98778218 -23.82421875 12.859375 C-22.9276506 12.34280334 -22.9276506 12.34280334 -22.01296997 11.8157959 C-19.10534351 10.14108368 -16.19673518 8.46811326 -13.28710938 6.796875 C-12.24748047 6.19875 -11.20785156 5.600625 -10.13671875 4.984375 C-9.21592529 4.45553711 -8.29513184 3.92669922 -7.34643555 3.38183594 C-1.60388693 0 -1.60388693 0 0 0 Z " fill="#74AA9C" transform="translate(588,606)"/>
<path d="M0 0 C4.93619019 4.27299457 9.30195414 8.80388053 13.421875 13.86328125 C14.56269531 15.23033203 14.56269531 15.23033203 15.7265625 16.625 C36.02460499 41.82366022 47.11923618 73.29987893 46.703125 105.60375977 C46.67141372 108.08690178 46.66207997 110.56940795 46.65625 113.05273438 C46.64709732 114.64974733 46.63672716 116.24675388 46.625 117.84375 C46.62075012 118.57708054 46.61650024 119.31041107 46.61212158 120.06596375 C46.5602892 123.78173129 46.30312345 127.24866146 45.421875 130.86328125 C41.28697717 129.59906033 37.7224769 128.05850564 33.9921875 125.87890625 C32.96222656 125.28078125 31.93226563 124.68265625 30.87109375 124.06640625 C29.77410156 123.421875 28.67710937 122.77734375 27.546875 122.11328125 C26.38440756 121.43569503 25.22164203 120.75861998 24.05859375 120.08203125 C21.0803783 118.34783386 18.10588875 116.60735562 15.13244629 114.86499023 C12.51990382 113.33508775 9.90446309 111.81016619 7.2890625 110.28515625 C4.3458328 108.56884152 1.40282802 106.85215428 -1.5390625 105.13354492 C-12.10062077 98.96543592 -22.69771571 92.85928773 -33.29589844 86.75439453 C-38.72472442 83.62647977 -44.15131781 80.49469677 -49.578125 77.36328125 C-51.74478083 76.11326246 -53.9114475 74.86326247 -56.078125 73.61328125 C-69.078125 66.11328125 -69.078125 66.11328125 -72.33276367 64.23510742 C-74.48339314 62.99468945 -76.63459107 61.75525653 -78.78637695 60.5168457 C-83.84841437 57.6019203 -88.90422812 54.67757551 -93.93991089 51.71737671 C-96.30896902 50.32556256 -98.68132733 48.93942898 -101.05395508 47.55371094 C-102.71955069 46.57777786 -104.38035859 45.59368812 -106.04101562 44.609375 C-113.60113666 40.1989049 -120.53036205 36.54844583 -129.578125 37.86328125 C-137.52062252 40.31509959 -144.58660718 44.53737922 -151.703125 48.73828125 C-153.43118762 49.74680927 -155.15925125 50.75533558 -156.88739014 51.76373291 C-158.64809681 52.79276964 -160.40688156 53.82501315 -162.16503906 54.85839844 C-166.32062714 57.29943486 -170.48378439 59.72733658 -174.64746094 62.15454102 C-176.61212722 63.30005079 -178.57631504 64.44638155 -180.54003906 65.59350586 C-191.10115679 71.76164802 -201.69803133 77.86745658 -212.29589844 83.97216797 C-217.72472442 87.10008273 -223.15131781 90.23186573 -228.578125 93.36328125 C-230.74478083 94.61330004 -232.9114475 95.86330003 -235.078125 97.11328125 C-236.686875 98.04140625 -236.686875 98.04140625 -238.328125 98.98828125 C-248.078125 104.61328125 -248.078125 104.61328125 -251.32910156 106.48876953 C-253.49259976 107.73699159 -255.65601143 108.98536364 -257.81933594 110.23388672 C-263.28377517 113.38733381 -268.74976145 116.53804221 -274.21875 119.68359375 C-276.42196165 120.95167238 -278.62508737 122.21990031 -280.828125 123.48828125 C-281.89353516 124.10131104 -282.95894531 124.71434082 -284.05664062 125.34594727 C-289.40211909 128.42858825 -294.72992459 131.53726488 -300.03125 134.6953125 C-301.05057617 135.3022998 -302.06990234 135.90928711 -303.12011719 136.53466797 C-305.05032044 137.68711847 -306.97817351 138.84351704 -308.90332031 140.00439453 C-309.75506836 140.51341309 -310.60681641 141.02243164 -311.484375 141.546875 C-312.23009766 141.99603271 -312.97582031 142.44519043 -313.74414062 142.90795898 C-315.578125 143.86328125 -315.578125 143.86328125 -317.578125 143.86328125 C-317.578125 118.78328125 -317.578125 93.70328125 -317.578125 67.86328125 C-311.638125 64.56328125 -305.698125 61.26328125 -299.578125 57.86328125 C-295.73481154 55.64844868 -291.90027786 53.42599189 -288.078125 51.17578125 C-286.02375299 49.97211762 -283.96905377 48.76901232 -281.9140625 47.56640625 C-280.35316895 46.6527832 -280.35316895 46.6527832 -278.76074219 45.72070312 C-273.4192141 42.60330932 -268.06164126 39.51385583 -262.703125 36.42578125 C-261.62353516 35.80356689 -260.54394531 35.18135254 -259.43164062 34.5402832 C-257.2412998 33.27816608 -255.05086998 32.0162034 -252.86035156 30.75439453 C-247.43152558 27.62647977 -242.00493219 24.49469677 -236.578125 21.36328125 C-234.41146917 20.11326246 -232.2448025 18.86326247 -230.078125 17.61328125 C-229.005625 16.99453125 -227.933125 16.37578125 -226.828125 15.73828125 C-223.578125 13.86328125 -220.328125 11.98828125 -217.078125 10.11328125 C-216.0048999 9.49404785 -214.9316748 8.87481445 -213.82592773 8.23681641 C-211.666813 6.99130438 -209.50747177 5.74618492 -207.34790039 4.50146484 C-201.81373299 1.3110376 -196.28408949 -1.88684729 -190.76171875 -5.09765625 C-184.38225981 -8.80393181 -177.98652419 -12.48073634 -171.578125 -16.13671875 C-170.76520996 -16.60368164 -169.95229492 -17.07064453 -169.11474609 -17.55175781 C-158.04604169 -23.86778457 -146.73135051 -28.32453665 -134.578125 -32.13671875 C-133.50433594 -32.47574219 -132.43054688 -32.81476563 -131.32421875 -33.1640625 C-128.75375808 -33.91611868 -126.19294847 -34.55926162 -123.578125 -35.13671875 C-122.69769531 -35.34039062 -121.81726563 -35.5440625 -120.91015625 -35.75390625 C-77.0594658 -44.21123889 -33.41241171 -27.69180183 0 0 Z " fill="#74AA9C" transform="translate(753.578125,274.13671875)"/>
<path d="M0 0 C0.79792969 0.41797852 1.59585938 0.83595703 2.41796875 1.26660156 C3.02487549 1.57114258 3.63178223 1.87568359 4.25708008 2.18945312 C5.11982544 2.66850098 5.11982544 2.66850098 6 3.15722656 C6.67160156 3.52936279 7.34320312 3.90149902 8.03515625 4.28491211 C9.12183594 4.89459839 9.12183594 4.89459839 10.23046875 5.51660156 C11.01035156 5.95206299 11.79023437 6.38752441 12.59375 6.83618164 C20.08798692 11.04217574 27.51011803 15.37053471 34.92407227 19.71606445 C40.46627899 22.96439749 46.0179771 26.19449302 51.58984375 29.39160156 C52.18321533 29.73238235 52.77658691 30.07316315 53.38793945 30.42427063 C56.2705401 32.07950009 59.15459878 33.73204001 62.04101562 35.38061523 C63.07806641 35.97592041 64.11511719 36.57122559 65.18359375 37.18457031 C66.09915039 37.70817139 67.01470703 38.23177246 67.95800781 38.77124023 C68.76979492 39.26470947 69.58158203 39.75817871 70.41796875 40.26660156 C71.11639389 40.62077148 71.81481903 40.97494141 72.53440857 41.33984375 C75.44912112 44.32140241 75.01608201 47.64014378 75.01489258 51.59008789 C75.02993332 52.43920242 75.04497406 53.28831696 75.06047058 54.16316223 C75.10362583 56.97519743 75.11625209 59.78629275 75.125 62.59863281 C75.14039058 64.55295671 75.15624058 66.50727703 75.17253113 68.46159363 C75.20101678 72.56147078 75.21240277 76.66101538 75.21411133 80.76098633 C75.21929062 86.01106099 75.2842367 91.25853156 75.36439991 96.50792408 C75.41642882 100.54610267 75.42767272 104.58365407 75.42761803 108.62213707 C75.43417986 110.55709046 75.45545744 112.49205261 75.49180031 114.4266758 C75.7512262 129.53096295 75.7512262 129.53096295 72.54769897 133.70132446 C70.21573598 135.29225966 68.0632165 136.30230277 65.41796875 137.26660156 C64.4125 137.86311523 63.40703125 138.45962891 62.37109375 139.07421875 C61.03304687 139.81140137 61.03304687 139.81140137 59.66796875 140.56347656 C58.65661865 141.12421875 57.64526855 141.68496094 56.60327148 142.26269531 C55.02654663 143.13087891 55.02654663 143.13087891 53.41796875 144.01660156 C46.18873481 148.03126455 38.97168325 152.05431316 31.85546875 156.26660156 C31.21254883 156.64429688 30.56962891 157.02199219 29.90722656 157.41113281 C25.6508019 159.9190505 21.43120855 162.48236632 17.21875 165.06347656 C15.03530866 166.38143743 12.85171543 167.69914668 10.66796875 169.01660156 C9.11227173 169.98533203 9.11227173 169.98533203 7.52514648 170.97363281 C6.05670288 171.85341797 6.05670288 171.85341797 4.55859375 172.75097656 C3.68750977 173.28432617 2.81642578 173.81767578 1.91894531 174.3671875 C-0.58203125 175.26660156 -0.58203125 175.26660156 -3.06835938 174.60546875 C-3.89787109 174.16364258 -4.72738281 173.72181641 -5.58203125 173.26660156 C-6.43764648 172.81994141 -7.29326172 172.37328125 -8.17480469 171.91308594 C-9.0877832 171.40068359 -10.00076172 170.88828125 -10.94140625 170.36035156 C-12.47752563 169.50002319 -12.47752563 169.50002319 -14.04467773 168.62231445 C-15.12950439 168.0099292 -16.21433105 167.39754395 -17.33203125 166.76660156 C-18.45875244 166.13294678 -19.58547363 165.49929199 -20.74633789 164.84643555 C-27.52112504 161.0256666 -34.26286369 157.15613782 -40.94897461 153.18237305 C-45.36596726 150.55956634 -49.80622195 147.97965012 -54.26171875 145.42285156 C-54.8484285 145.08587753 -55.43513824 144.7489035 -56.03962708 144.40171814 C-58.97504531 142.71618208 -61.91203212 141.03352775 -64.85131836 139.35473633 C-66.46018921 138.43132446 -66.46018921 138.43132446 -68.1015625 137.48925781 C-69.06167236 136.94019775 -70.02178223 136.3911377 -71.01098633 135.82543945 C-71.85943115 135.31102295 -72.70787598 134.79660645 -73.58203125 134.26660156 C-74.2827475 133.91112244 -74.98346375 133.55564331 -75.70541382 133.18939209 C-78.61341403 130.2098422 -78.18014285 126.88754403 -78.17895508 122.94311523 C-78.19399582 122.0940007 -78.20903656 121.24488617 -78.22453308 120.37004089 C-78.26768833 117.55800569 -78.28031459 114.74691038 -78.2890625 111.93457031 C-78.30445308 109.98024642 -78.32030308 108.0259261 -78.33659363 106.0716095 C-78.36507928 101.97173235 -78.37646527 97.87218775 -78.37817383 93.7722168 C-78.38335312 88.52214214 -78.4482992 83.27467156 -78.52846241 78.02527905 C-78.58049132 73.98710045 -78.59173522 69.94954906 -78.59168053 65.91106606 C-78.59824236 63.97611266 -78.61951994 62.04115052 -78.65586281 60.10652733 C-78.9158178 44.97143486 -78.9158178 44.97143486 -75.64927673 40.7961731 C-73.32086056 39.21291988 -71.22019069 38.22329427 -68.58203125 37.26660156 C-67.24587765 36.52735712 -65.91930987 35.77011869 -64.609375 34.98535156 C-63.24773119 34.24275785 -61.88437176 33.50330344 -60.51953125 32.76660156 C-53.26669528 28.7920659 -46.09630397 24.69150646 -38.95703125 20.51660156 C-37.95881348 19.93587891 -36.9605957 19.35515625 -35.93212891 18.75683594 C-30.5517259 15.61962469 -25.20505554 12.43631288 -19.890625 9.18847656 C-18.80281738 8.53202148 -17.71500977 7.87556641 -16.59423828 7.19921875 C-14.49884919 5.93360758 -12.41213867 4.65348824 -10.33544922 3.35742188 C-9.3920166 2.79120117 -8.44858398 2.22498047 -7.4765625 1.64160156 C-6.65003174 1.13371094 -5.82350098 0.62582031 -4.97192383 0.10253906 C-2.58203125 -0.73339844 -2.58203125 -0.73339844 0 0 Z " fill="#74AA9C" transform="translate(513.58203125,424.7333984375)"/>
</svg>
