<svg xmlns="http://www.w3.org/2000/svg" version="1.1" viewBox="36.04 53.32 440.24 404.94">
<path d="M0 0 C0.33 0.33 0.66 0.66 1 1 C6.07152635 0.50200588 11.07589568 -0.32759861 16.10229492 -1.15551758 C52.86671441 -7.08663993 88.58064923 3.65277803 118.8125 24.875 C137.94342135 38.69396793 155.54316003 55.34505926 170 74 C171.56025217 75.81443536 173.12291451 77.62679993 174.6875 79.4375 C186.68844174 93.8572362 196.67347207 109.7596123 206 126 C206.54237305 126.94383545 206.54237305 126.94383545 207.09570312 127.90673828 C212 136.50388295 212 136.50388295 212 139 C212.66902344 138.95359375 213.33804687 138.9071875 214.02734375 138.859375 C241.28941591 137.83476021 267.40285448 152.71761063 286.83642578 170.69921875 C313.76352206 196.03924327 313.76352206 196.03924327 316.43359375 209.125 C316.44408031 214.15855038 315.60199855 217.2222942 312 221 C305.03228574 224.32733955 297.03448174 225.18905094 289.5 226.4375 C281.24466409 227.85603163 273.02475623 229.30599648 264.875 231.25 C264.18986328 231.41298584 263.50472656 231.57597168 262.79882812 231.74389648 C260.40703509 232.33153529 258.20997182 232.89501409 256 234 C256.52207031 234.55945313 257.04414063 235.11890625 257.58203125 235.6953125 C264.13143422 242.82968841 270.13659178 250.2974103 276 258 C276.68497559 258.89960449 276.68497559 258.89960449 277.38378906 259.81738281 C317.8955145 313.34353604 317.8955145 313.34353604 317.125 338 C317.10695313 338.763125 317.08890625 339.52625 317.0703125 340.3125 C317.03550781 341.1478125 317.03550781 341.1478125 317 342 C319.91637112 336.54765398 321.12243081 332.14630496 321.13142776 325.99018478 C321.13526891 324.99997888 321.13911005 324.00977298 321.1430676 322.98956084 C321.14176787 321.36890822 321.14176787 321.36890822 321.14044189 319.71551514 C321.14341302 318.56194779 321.14638414 317.40838044 321.1494453 316.2198565 C321.15661624 313.02187476 321.15930389 309.82392578 321.16004276 306.62593722 C321.16189637 303.17523521 321.16944522 299.72454478 321.17617798 296.27384949 C321.1897491 288.73039503 321.19578405 281.18694589 321.20018864 273.64348125 C321.20295298 268.93183721 321.20719068 264.22019521 321.21169281 259.50855255 C321.22388362 246.45896916 321.23418348 233.4093874 321.2375679 220.35979843 C321.23778747 219.52490411 321.23800703 218.69000979 321.23823325 217.82981564 C321.23845153 216.99294499 321.23866981 216.15607435 321.2388947 215.29384398 C321.23933816 213.59807698 321.23978473 211.90230997 321.24023438 210.20654297 C321.2404558 209.36538729 321.24067723 208.52423161 321.24090537 207.65758637 C321.24485301 194.02928858 321.26230681 180.40104428 321.2855939 166.77276716 C321.3093188 152.77509967 321.32177026 138.77745901 321.32293582 124.77977109 C321.32385191 116.92288121 321.32958767 109.06606103 321.34775543 101.20919037 C321.36317175 94.51873312 321.36826784 87.82836713 321.36001733 81.13789549 C321.3561163 77.72612807 321.35701347 74.31454431 321.37107468 70.90279961 C321.38376779 67.19918162 321.37793107 63.49603414 321.36749268 59.79241943 C321.37554908 58.72090724 321.38360548 57.64939504 321.39190602 56.54541278 C321.34233734 49.01864163 320.26711987 42.64358551 316.25 36.1875 C310.58034323 30.6753337 304.74057945 28.87779689 296.97866821 28.86869812 C295.74495987 28.86468994 294.51125153 28.86068176 293.24015808 28.85655212 C291.87576292 28.85702719 290.51136777 28.85756329 289.14697266 28.8581543 C287.70785923 28.85512167 286.26874676 28.85159993 284.82963562 28.84762573 C281.73197956 28.83974463 278.63433498 28.83459481 275.53667068 28.83133507 C270.63674658 28.82541893 265.73689487 28.80887317 260.83700562 28.78999329 C259.15870862 28.78365615 257.48041157 28.77733053 255.80211449 28.77101612 C254.96169947 28.76785031 254.12128446 28.7646845 253.25540233 28.76142275 C241.84964295 28.71936185 230.44391773 28.68636637 219.03808594 28.67407227 C211.34186542 28.6656915 203.64582464 28.64320192 195.94969404 28.6047166 C191.87836346 28.5849594 187.80730154 28.57255026 183.73591995 28.57755089 C179.90590419 28.58219797 176.07639783 28.56838931 172.24648476 28.54053879 C170.84286865 28.53362844 169.43919985 28.53349884 168.0355854 28.54073906 C154.76569331 28.60226347 154.76569331 28.60226347 150 24 C147.43183281 19.90698354 146.69757453 17.00360273 147.5 12.3125 C148.63630024 8.16959168 150.22340252 6.21069121 154 4 C157.21160182 2.92946606 159.52162479 2.86891978 162.89866638 2.85955811 C164.13074326 2.85384796 165.36282013 2.84813782 166.63223267 2.84225464 C168.000183 2.84100925 169.36813346 2.83988416 170.73608398 2.83886719 C172.17516711 2.83423823 173.614249 2.82921346 175.05332947 2.82382202 C178.96705541 2.81069635 182.88076418 2.80425178 186.7945087 2.79981136 C189.24311029 2.79687857 191.69170723 2.79277319 194.14030647 2.78830719 C201.81084497 2.77462668 209.48137279 2.76496492 217.15192264 2.7611053 C225.98744929 2.75663463 234.82282046 2.73913531 243.65829986 2.7101047 C250.49756031 2.68841905 257.33677727 2.67839722 264.1760717 2.67706418 C268.25542146 2.6760203 272.33462517 2.67020299 276.41393852 2.65224457 C280.25942733 2.63564634 284.10466225 2.6336647 287.95017433 2.64238358 C289.35290588 2.64314794 290.75565173 2.63889168 292.15834808 2.62892532 C307.97266922 2.52325961 321.36333468 5.56498614 333.25 16.5 C345.04395014 29.0075968 347.3238891 43.50161177 347.25396729 60.14404297 C347.25708727 61.30555815 347.26020725 62.46707333 347.26342177 63.66378593 C347.2713457 67.52330604 347.26510003 71.38266646 347.25878906 75.2421875 C347.26040203 78.02248456 347.26499189 80.80277502 347.26940918 83.58306885 C347.27827016 90.33125736 347.27639592 97.07940121 347.2705839 103.82759142 C347.26605439 109.31538285 347.26546006 114.80316182 347.26763153 120.29095459 C347.267938 121.07406663 347.26824446 121.85717867 347.26856022 122.66402137 C347.26919971 124.25524219 347.26984814 125.84646301 347.2705054 127.43768382 C347.27619904 142.33433989 347.26966599 157.23097129 347.25890467 172.12762332 C347.24997004 184.8904331 347.25152235 197.6532065 347.26074219 210.41601562 C347.27146192 225.26189078 347.27564981 240.10774434 347.26951766 254.95362282 C347.26888061 256.53876368 347.26825187 258.12390454 347.26763153 259.70904541 C347.26732298 260.48882433 347.26701443 261.26860325 347.26669653 262.07201183 C347.26497469 267.54880664 347.26787363 273.02558769 347.27259064 278.50238037 C347.27821842 285.18305853 347.2766433 291.86368972 347.26602915 298.54436255 C347.26079784 301.94842486 347.25976122 305.35234483 347.26532745 308.75641632 C347.27081833 312.45634033 347.26390573 316.15604676 347.25396729 319.85595703 C347.25842873 320.91784681 347.26289017 321.9797366 347.26748681 323.07380486 C347.18466737 339.04503228 343.75097378 351.9684148 332.48828125 363.7421875 C319.52029824 375.50905435 306.03762097 377.15807686 289.25468445 377.13371277 C287.52238192 377.1371111 287.52238192 377.1371111 285.75508338 377.14057809 C282.57192858 377.14578904 279.38880956 377.14656715 276.20565188 377.14538372 C272.76382653 377.14517872 269.32200944 377.15070787 265.88018799 377.15544128 C259.14563824 377.16372668 252.41109726 377.16649516 245.67654284 377.16705366 C240.19964701 377.16752978 234.72275406 377.16958931 229.24585915 377.17275429 C213.69929844 377.18155474 198.15274462 377.18617456 182.60618141 377.18542381 C181.76910297 377.18538386 180.93202453 377.1853439 180.06958008 377.18530273 C179.23147334 377.18526185 178.3933666 377.18522097 177.52986268 377.18517885 C163.94912437 377.18477245 150.3684138 377.19434206 136.78768351 377.2084411 C122.82490544 377.22282179 108.86214089 377.22971037 94.89935523 377.22884732 C87.06759806 377.22851596 79.23586997 377.23123643 71.40411949 377.24202538 C64.73618237 377.25115263 58.06828752 377.25328737 51.40034684 377.24651595 C48.00237757 377.24326206 44.60455514 377.2442505 41.20658302 377.2518692 C37.51307249 377.25961235 33.81977264 377.25492879 30.12626648 377.24723816 C29.06622129 377.25238172 28.00617609 377.25752529 26.91400832 377.26282471 C11.49106057 377.19219038 -1.84564662 374.11466995 -13.4375 363.4375 C-24.51681592 351.46380767 -27.36769578 337.64694345 -27.31567383 321.77832031 C-27.31248389 319.73970447 -27.33615314 317.702503 -27.36132812 315.6640625 C-27.36197266 314.36726563 -27.36261719 313.07046875 -27.36328125 311.734375 C-27.36626221 310.56100586 -27.36924316 309.38763672 -27.37231445 308.17871094 C-26.83426785 303.58502784 -24.94989778 301.03371229 -21.875 297.6875 C-17.86248649 295.33232903 -14.54686069 295.19949636 -10 296 C-5.93136386 298.07130567 -3.61743422 299.74015905 -2 304 C-1.72875977 306.98925781 -1.72875977 306.98925781 -1.69140625 310.453125 C-1.66626953 311.71253906 -1.64113281 312.97195313 -1.61523438 314.26953125 C-1.58028574 316.90750568 -1.54899148 319.54553123 -1.52148438 322.18359375 C-1.28771585 333.89283666 -1.28771585 333.89283666 4.4375 343.8125 C5.7059375 344.8953125 5.7059375 344.8953125 7 346 C7.61875 346.556875 8.2375 347.11375 8.875 347.6875 C15.2023107 351.59554485 22.06973671 351.27672186 29.25952148 351.22705078 C30.37245071 351.22734283 31.48537994 351.22763489 32.6320343 351.22793579 C36.29513459 351.22654717 39.95802917 351.21100772 43.62109375 351.1953125 C46.16699614 351.19158072 48.71289998 351.18873452 51.25880432 351.18673706 C57.26516019 351.17989202 63.27142834 351.16414369 69.27774912 351.14403808 C76.11936706 351.12163647 82.9609886 351.11067496 89.80263412 351.10064721 C103.86846325 351.07977614 117.9342276 351.04462686 132 351 C131.24074219 350.40832031 130.48148438 349.81664062 129.69921875 349.20703125 C128.70535156 348.41683594 127.71148437 347.62664062 126.6875 346.8125 C125.70136719 346.03519531 124.71523437 345.25789063 123.69921875 344.45703125 C120.55252749 341.59267698 118.38279883 338.98296693 117.56640625 334.75390625 C117.55680704 329.36874703 118.31108476 326.20126458 122 322 C125.00904985 319.63574655 128.1442822 319.73384559 131.90234375 319.63671875 C137.38827599 320.5867964 141.44782845 324.94746569 145.5 328.5 C146.74062117 329.57452392 147.98151305 330.64873535 149.22265625 331.72265625 C149.84930176 332.26680176 150.47594727 332.81094727 151.12158203 333.37158203 C154.04774104 335.90829643 156.98885698 338.42698082 159.9375 340.9375 C160.93652344 341.79214844 161.93554688 342.64679688 162.96484375 343.52734375 C163.96644531 344.34332031 164.96804688 345.15929687 166 346 C166.96050262 346.86396393 167.92100525 347.72792786 168.91061401 348.61807251 C174.00260649 352.1985731 179.45305699 351.66824197 185.46533203 351.58349609 C187.32750366 351.58700073 187.32750366 351.58700073 189.22729492 351.59057617 C192.61613013 351.59191039 196.00342571 351.57107217 199.39202356 351.53990126 C202.94506379 351.5122537 206.498108 351.51235604 210.05123901 351.50918579 C216.01461704 351.49999759 221.97767297 351.47251562 227.94091797 351.43212891 C236.34431512 351.37526699 244.74755051 351.3529658 253.15110993 351.33684421 C258.98179726 351.32437867 264.81246023 351.30371304 270.64311743 351.2814641 C272.05428662 351.27610782 273.46545666 351.27097081 274.87662745 351.26605177 C279.51563619 351.24952238 284.15451539 351.22351459 288.79345703 351.19287109 C290.54533829 351.18648117 290.54533829 351.18648117 292.33261108 351.17996216 C293.40638 351.17136169 294.48014893 351.16276123 295.5864563 351.15390015 C296.51667162 351.14832785 297.44688694 351.14275555 298.4052906 351.13701439 C301.02406305 350.99872934 303.44560586 350.57947629 306 350 C305.39671875 349.82984375 304.7934375 349.6596875 304.171875 349.484375 C303.37265625 349.24203125 302.5734375 348.9996875 301.75 348.75 C300.96109375 348.51796875 300.1721875 348.2859375 299.359375 348.046875 C296.4161632 346.74094658 294.99132719 345.54772744 293 343 C292.04902756 340.3877251 291.2493985 337.8549149 290.5 335.1875 C280.6185449 303.29540764 257.98517837 276.04173507 236.42285156 251.18164062 C235.33358869 249.92504927 234.2454532 248.66747977 233.15844727 247.40893555 C232.12849879 246.21733384 231.0953569 245.02848136 230.05834961 243.84301758 C222.22385859 234.79086868 222.22385859 234.79086868 221.5625 229.5 C222.26402953 223.88776374 224.04200489 220.52090524 228.375 216.9375 C243.01963212 206.85130435 262.97720293 204.75712362 280 201 C274.30573753 194.09835809 268.09529724 188.43639676 261 183 C260.20851563 182.38125 259.41703125 181.7625 258.6015625 181.125 C243.65197021 169.99972202 226.47788165 164.76615607 208 164 C202.08551186 163.70940376 198.44542596 163.16038864 194 159 C192.40112305 156.54003906 192.40112305 156.54003906 191.01171875 153.765625 C190.47853027 152.72841309 189.9453418 151.69120117 189.39599609 150.62255859 C188.83219238 149.50961426 188.26838867 148.39666992 187.6875 147.25 C176.18643853 125.2414162 162.23950028 103.60353722 145.23046875 85.40625 C143.3518115 83.37953745 141.53767596 81.32024353 139.73046875 79.23046875 C115.16127612 51.08870659 82.68815828 26.47589673 44.22265625 23.125 C32.75972539 22.48033605 21.56725879 23.22157509 10.6875 27.125 C5.61329942 28.90164317 1.338478 30.14567465 -4 29 C-6.08886719 27.83300781 -6.08886719 27.83300781 -8.234375 26.328125 C-9.02030029 25.78430176 -9.80622559 25.24047852 -10.6159668 24.68017578 C-11.40269775 24.12571777 -12.18942871 23.57125977 -13 23 C-37.88406529 5.00337117 -37.88406529 5.00337117 -67 -1 C-65.21385931 16.36867843 -55.42635634 29.08450078 -44.78198242 42.2512207 C-34.92682416 54.500483 -28.98260998 67.2606217 -23.21362305 81.80932617 C-17.52437019 95.97887887 -10.51526828 109.01299211 -1 121 C-0.2575 121.94488281 0.485 122.88976562 1.25 123.86328125 C4.61793275 128.06750811 8.01145136 132.11719058 11.875 135.875 C15.72101811 139.65855378 18.13754449 142.47056044 18.265625 148.03515625 C18.19551057 153.44864278 16.61725667 158.00566255 14.8125 163.0625 C12.04510585 171.24919831 9.85194061 179.40676487 8.125 187.875 C7.82106323 189.36205444 7.82106323 189.36205444 7.51098633 190.87915039 C1.71307542 220.22403653 3.06982163 252.84097026 19 279 C19.66 279.33 20.32 279.66 21 280 C21.07992187 278.96359375 21.15984375 277.9271875 21.2421875 276.859375 C22.0499122 270.44823606 24.17244088 264.38712839 26.125 258.25 C26.53288916 256.95972045 26.94076665 255.66943721 27.34863281 254.37915039 C28.16701428 251.79963577 28.99215561 249.22242121 29.82324219 246.64697266 C30.56312857 244.35393889 31.29878237 242.05953071 32.02832031 239.76318359 C32.91646151 236.98122534 33.82763267 234.2082684 34.75 231.4375 C35.00668457 230.63022461 35.26336914 229.82294922 35.52783203 228.99121094 C37.12591805 224.32581443 38.60932854 221.64384518 43 219 C46.85406874 217.64105091 50.16029945 217.76008556 54.0625 218.875 C61.20867465 224.04457315 65.35154296 232.08666902 69.87915039 239.48754883 C74.70273627 247.29032868 80.13306844 254.63583535 85.55810547 262.02636719 C95.60213283 275.774406 95.60213283 275.774406 95 283 C92.74794145 287.33729795 90.5613976 290.13397371 86 292 C80.77689593 292.5803449 78.01814746 292.54525017 73.59936523 289.41577148 C70.32772826 286.51969106 67.97289899 282.88674949 65.5 279.3125 C64.95730469 278.54744141 64.41460937 277.78238281 63.85546875 276.99414062 C60.13820478 271.72875598 56.55175306 266.37802609 53 261 C48.89107826 271.96343634 46.15529871 283.17534131 43.49975586 294.56713867 C38.94085735 314.05914265 38.94085735 314.05914265 35.4375 317.5625 C31.23311408 320.04200965 27.86473158 320.63214026 23 320 C20.0625 318.5 20.0625 318.5 17 316 C16.34515625 315.49855469 15.6903125 314.99710937 15.015625 314.48046875 C-6.4927544 296.97630892 -17.62998351 267.33066719 -20.79711914 240.51367188 C-22.97716286 213.50316624 -19.51466601 187.76884686 -12.26953125 161.73828125 C-11.84461032 160.15932243 -11.42121658 158.57995106 -11 157 C-10.7009375 155.88625 -10.401875 154.7725 -10.09375 153.625 C-9.74176387 150.92892537 -9.74176387 150.92892537 -11.44921875 148.82421875 C-12.18785156 148.11910156 -12.92648438 147.41398438 -13.6875 146.6875 C-30.71523512 129.024204 -42.31306445 105.90328053 -51.0625 83.1875 C-55.52567101 71.87443551 -61.81215381 62.70589317 -69.36328125 53.3046875 C-81.83576328 37.75953214 -94.65511402 18.32240257 -92.77734375 -2.46484375 C-91.36221923 -10.50220146 -87.15164342 -16.70686195 -80.8203125 -21.75 C-55.80341203 -38.92898745 -20.13254257 -14.79070794 0 0 Z " fill="#1670B9" transform="translate(129,81)"/>
<path d="M0 0 C1.84811531 -0.00856522 1.84811531 -0.00856522 3.73356628 -0.01730347 C5.10151662 -0.01854885 6.46946708 -0.01967394 7.8374176 -0.02069092 C9.27650072 -0.02531988 10.71558262 -0.03034465 12.15466309 -0.03573608 C16.06838902 -0.04886175 19.9820978 -0.05530633 23.89584231 -0.05974674 C26.34444391 -0.06267953 28.79304084 -0.06678492 31.24164009 -0.07125092 C38.91217859 -0.08493142 46.5827064 -0.09459319 54.25325626 -0.09845281 C63.08878291 -0.10292348 71.92415408 -0.1204228 80.75963348 -0.1494534 C87.59889393 -0.17113905 94.43811089 -0.18116088 101.27740532 -0.18249393 C105.35675507 -0.1835378 109.43595879 -0.18935512 113.51527214 -0.20731354 C117.36076095 -0.22391177 121.20599587 -0.22589341 125.05150795 -0.21717453 C126.4542395 -0.21641017 127.85698535 -0.22066643 129.2596817 -0.23063278 C145.07400284 -0.33629849 158.4646683 2.70542803 170.35133362 13.64044189 C182.14528375 26.14803869 184.42522272 40.64205366 184.3553009 57.28448486 C184.35842088 58.44600004 184.36154087 59.60751522 184.36475539 60.80422783 C184.37267932 64.66374793 184.36643365 68.52310835 184.36012268 72.38262939 C184.36173564 75.16292646 184.36632551 77.94321691 184.3707428 80.72351074 C184.37960378 87.47169925 184.37772954 94.2198431 184.37191752 100.96803331 C184.36738801 106.45582474 184.36679368 111.94360372 184.36896515 117.43139648 C184.36927161 118.21450852 184.36957808 118.99762056 184.36989383 119.80446327 C184.37053333 121.39568409 184.37118176 122.9869049 184.37183902 124.57812572 C184.37753266 139.47478179 184.37099961 154.37141319 184.36023828 169.26806521 C184.35130365 182.030875 184.35285597 194.79364839 184.36207581 207.55645752 C184.37279553 222.40233267 184.37698343 237.24818623 184.37085128 252.09406471 C184.37021423 253.67920557 184.36958548 255.26434644 184.36896515 256.8494873 C184.3686566 257.62926622 184.36834805 258.40904514 184.36803015 259.21245372 C184.36630831 264.68924854 184.36920725 270.16602958 184.37392426 275.64282227 C184.37955204 282.32350042 184.37797692 289.00413162 184.36736277 295.68480444 C184.36213146 299.08886675 184.36109484 302.49278672 184.36666107 305.89685822 C184.37215195 309.59678223 184.36523934 313.29648865 184.3553009 316.99639893 C184.35976235 318.05828871 184.36422379 319.12017849 184.36882043 320.21424675 C184.28600099 336.18547418 180.8523074 349.1088567 169.58961487 360.88262939 C156.62163185 372.64949624 143.13895458 374.29851876 126.35601807 374.27415466 C124.62371554 374.277553 124.62371554 374.277553 122.856417 374.28101999 C119.67326219 374.28623094 116.49014318 374.28700904 113.3069855 374.28582561 C109.86516014 374.28562061 106.42334306 374.29114976 102.98152161 374.29588318 C96.24697186 374.30416857 89.51243087 374.30693705 82.77787646 374.30749556 C77.30098063 374.30797168 71.82408768 374.31003121 66.34719276 374.31319618 C50.80063206 374.32199664 35.25407824 374.32661646 19.70751502 374.32586571 C18.87043659 374.32582575 18.03335815 374.3257858 17.1709137 374.32574463 C16.33280695 374.32570375 15.49470021 374.32566287 14.6311963 374.32562075 C1.05045799 374.32521435 -12.53025258 374.33478396 -26.11098287 374.348883 C-40.07376094 374.36326368 -54.03652549 374.37015226 -67.99931115 374.36928922 C-75.83106832 374.36895786 -83.66279641 374.37167833 -91.49454689 374.38246727 C-98.16248401 374.39159452 -104.83037886 374.39372926 -111.49831954 374.38695785 C-114.89628881 374.38370396 -118.29411124 374.38469239 -121.69208336 374.3923111 C-125.3855939 374.40005424 -129.07889374 374.39537068 -132.7723999 374.38768005 C-133.8324451 374.39282362 -134.89249029 374.39796718 -135.98465806 374.40326661 C-151.40760581 374.33263228 -164.744313 371.25511185 -176.33616638 360.57794189 C-187.41548231 348.60424956 -190.26636217 334.78738535 -190.21434021 318.91876221 C-190.21115027 316.88014637 -190.23481952 314.84294489 -190.25999451 312.80450439 C-190.26063904 311.50770752 -190.26128357 310.21091064 -190.26194763 308.87481689 C-190.26492859 307.70144775 -190.26790955 306.52807861 -190.27098083 305.31915283 C-189.73293424 300.72546974 -187.84856417 298.17415419 -184.77366638 294.82794189 C-180.76115287 292.47277092 -177.44552708 292.33993825 -172.89866638 293.14044189 C-168.83003025 295.21174756 -166.5161006 296.88060094 -164.89866638 301.14044189 C-164.62742615 304.12969971 -164.62742615 304.12969971 -164.59007263 307.59356689 C-164.56493591 308.85298096 -164.53979919 310.11239502 -164.51390076 311.40997314 C-164.47895213 314.04794757 -164.44765786 316.68597313 -164.42015076 319.32403564 C-164.18638224 331.03327856 -164.18638224 331.03327856 -158.46116638 340.95294189 C-157.19272888 342.03575439 -157.19272888 342.03575439 -155.89866638 343.14044189 C-155.27991638 343.69731689 -154.66116638 344.25419189 -154.02366638 344.82794189 C-147.69635568 348.73598674 -140.82892967 348.41716376 -133.6391449 348.36749268 C-132.52621567 348.36778473 -131.41328644 348.36807678 -130.26663208 348.36837769 C-126.60353179 348.36698906 -122.94063721 348.35144961 -119.27757263 348.33575439 C-116.73167024 348.33202261 -114.18576641 348.32917642 -111.63986206 348.32717896 C-105.63350619 348.32033391 -99.62723804 348.30458558 -93.62091726 348.28447998 C-86.77929933 348.26207836 -79.93767778 348.25111686 -73.09603226 348.24108911 C-59.03020313 348.22021803 -44.96443878 348.18506875 -30.89866638 348.14044189 C-31.65792419 347.54876221 -32.41718201 346.95708252 -33.19944763 346.34747314 C-34.19331482 345.55727783 -35.18718201 344.76708252 -36.21116638 343.95294189 C-37.19729919 343.17563721 -38.18343201 342.39833252 -39.19944763 341.59747314 C-42.34613889 338.73311887 -44.51586755 336.12340882 -45.33226013 331.89434814 C-45.34185935 326.50918892 -44.58758162 323.34170648 -40.89866638 319.14044189 C-37.88961654 316.77618844 -34.75438418 316.87428748 -30.99632263 316.77716064 C-25.51039039 317.7272383 -21.45083793 322.08790758 -17.39866638 325.64044189 C-16.15804522 326.71496582 -14.91715333 327.78917724 -13.67601013 328.86309814 C-13.04936462 329.40724365 -12.42271912 329.95138916 -11.77708435 330.51202393 C-8.85092534 333.04873833 -5.9098094 335.56742272 -2.96116638 338.07794189 C-1.96214294 338.93259033 -0.96311951 339.78723877 0.06617737 340.66778564 C1.06777893 341.48376221 2.06938049 342.29973877 3.10133362 343.14044189 C4.06314545 344.00375122 5.02495728 344.86706055 6.01591492 345.75653076 C11.09106563 349.32536302 16.50733495 348.82437469 22.50318909 348.75567627 C24.35572296 348.76399979 24.35572296 348.76399979 26.24568176 348.77249146 C29.61823445 348.78225119 32.98924314 348.76973282 36.36163092 348.74620628 C39.90214997 348.72601673 43.44263758 348.73198119 46.98320007 348.73431396 C52.9297784 348.73426047 58.87603825 348.71455098 64.82252502 348.68243408 C71.67937987 348.64557825 78.53581727 348.63675467 85.39275825 348.64373159 C92.00879942 348.65005731 98.62469871 348.63924202 105.24071121 348.61976624 C108.04670879 348.61163086 110.85263345 348.60887554 113.65864182 348.61045837 C117.58614376 348.61150801 121.51327448 348.587221 125.44068909 348.56036377 C127.17099869 348.56475967 127.17099869 348.56475967 128.93626404 348.56924438 C138.13343272 348.47252513 145.79843491 347.17023606 152.66383362 340.74981689 C157.21689872 335.65236358 158.223101 329.74069306 158.23276138 323.13062668 C158.23660253 322.14042078 158.24044367 321.15021488 158.24440122 320.13000274 C158.24310149 318.50935011 158.24310149 318.50935011 158.24177551 316.85595703 C158.24474663 315.70238968 158.24771776 314.54882233 158.25077891 313.3602984 C158.25794985 310.16231665 158.2606375 306.96436767 158.26137638 303.76637912 C158.26322998 300.31567711 158.27077884 296.86498668 158.2775116 293.41429138 C158.29108272 285.87083692 158.29711766 278.32738778 158.30152225 270.78392315 C158.3042866 266.0722791 158.30852429 261.36063711 158.31302643 256.64899445 C158.32521723 243.59941105 158.33551709 230.54982929 158.33890152 217.50024033 C158.33912109 216.66534601 158.33934065 215.83045168 158.33956687 214.97025754 C158.33978515 214.13338689 158.34000343 213.29651624 158.34022832 212.43428588 C158.34067178 210.73851887 158.34111835 209.04275187 158.34156799 207.34698486 C158.34178942 206.50582918 158.34201085 205.66467351 158.34223899 204.79802826 C158.34618663 191.16973048 158.36364043 177.54148618 158.38692752 163.91320905 C158.41065242 149.91554156 158.42310388 135.9179009 158.42426944 121.92021298 C158.42518553 114.0633231 158.43092129 106.20650292 158.44908905 98.34963226 C158.46450537 91.65917502 158.46960146 84.96880902 158.46135095 78.27833739 C158.45744991 74.86656996 158.45834708 71.45498621 158.47240829 68.0432415 C158.4851014 64.33962351 158.47926469 60.63647603 158.46882629 56.93286133 C158.4768827 55.86134913 158.4849391 54.78983694 158.49323964 53.68585467 C158.44367096 46.15908353 157.36845349 39.78402741 153.35133362 33.32794189 C147.68167685 27.81577559 141.84191307 26.01823878 134.08000183 26.00914001 C132.84629349 26.00513184 131.61258514 26.00112366 130.3414917 25.99699402 C128.97709654 25.99746908 127.61270139 25.99800519 126.24830627 25.99859619 C124.80919285 25.99556357 123.37008038 25.99204183 121.93096924 25.98806763 C118.83331318 25.98018652 115.7356686 25.9750367 112.6380043 25.97177696 C107.7380802 25.96586083 102.83822849 25.94931506 97.93833923 25.93043518 C96.26004223 25.92409805 94.58174519 25.91777242 92.9034481 25.91145802 C92.06303309 25.9082922 91.22261808 25.90512639 90.35673594 25.90186465 C78.95097657 25.85980374 67.54525135 25.82680826 56.13941956 25.81451416 C48.44319903 25.8061334 40.74715826 25.78364381 33.05102766 25.74515849 C28.97969707 25.7254013 24.90863516 25.71299216 20.83725357 25.71799278 C17.00723781 25.72263986 13.17773145 25.7088312 9.34781837 25.68098068 C7.94420227 25.67407034 6.54053347 25.67394073 5.13691902 25.68118095 C-8.13297307 25.74270536 -8.13297307 25.74270536 -12.89866638 21.14044189 C-15.46683357 17.04742543 -16.20109185 14.14404462 -15.39866638 9.45294189 C-14.26236614 5.31003357 -12.67526386 3.3511331 -8.89866638 1.14044189 C-5.68706456 0.06990796 -3.37704159 0.00936167 0 0 Z " fill="#656565" transform="translate(291.89866638183594,83.85955810546875)"/>
<path d="M0 0 C4.07052347 2.1106418 6.28051835 3.77875001 8 8 C8.75653428 11.93543314 8.74978558 15.46336719 6.97265625 19.10546875 C4.30201048 22.69345545 1.95155134 24.41696984 -2.5 25.125 C-7.62180789 25.30607402 -11.05492577 23.81093118 -14.8125 20.3125 C-16.53119449 16.96556862 -17.10779154 13.72240127 -17 10 C-15.72723412 6.10683378 -14.37911743 4.33503401 -11.3125 1.625 C-7.29946819 -0.34365712 -4.38375947 -0.87325886 0 0 Z " fill="#656565" transform="translate(233,373)"/>
<path d="M0 0 C3.45979784 2.07737321 5.69404971 4.08214913 7 8 C7.39441267 13.22596788 6.90549127 16.59166842 4 21 C0.55773842 23.95050992 -2.48584514 24.48601833 -7.0078125 24.28125 C-10.21955259 23.82782787 -12.34687441 22.85101785 -15 21 C-17.94899302 16.67481024 -18.6475474 13.18037921 -18 8 C-16.17774814 4.35549628 -14.57798075 2.40721371 -11.25 0.0625 C-7.23289623 -1.25078392 -3.98009534 -1.31351059 0 0 Z " fill="#1670B9" transform="translate(159,138)"/>
</svg>